# xmcd
#
# Track frame offsets:
# 150
# 14953
# 32376
# 48200
# 64522
# 84217
# 99359
# 114098
# 128169
# 142549
# 160644
#
# Disc length: 2355 seconds
#
#
# Revision: 0
# Processed by: cddbd v1.5PL3 Copyright (c) Steve Scherf et al.
# Submitted via: FreeRIP 2.53 
#
DISCID=7209310b
DTITLE=Montgomery Gentry - Tatoos and Scars
DYEAR=1900
DGENRE=Country
TTITLE0=Hillbilly Shoes
TTITLE1=Trying Yo Survive
TTITLE2=Lonely and Gone
TTITLE3=Self Made Man
TTITLE4=Daddy Won't Sell The Farm
TTITLE5=If A broken Heart Could Kill
TTITLE6=I've loved A Lot More Than I've Hurt
TTITLE7=Didn't Your Mama Tell Ya
TTITLE8=Trouble Is
TTITLE9=Tatoos and Scars
TTITLE10=All Night Long
EXTD=
EXTT0=
EXTT1=
EXTT2=
EXTT3=
EXTT4=
EXTT5=
EXTT6=
EXTT7=
EXTT8=
EXTT9=
EXTT10=
PLAYORDER=
